<?xml version="1.0" encoding="utf-8"?>
<!-- Generator: Adobe Illustrator 21.1.0, SVG Export Plug-In . SVG Version: 6.00 Build 0)  -->
<svg version="1.1" id="Capa_1" xmlns="http://www.w3.org/2000/svg" xmlns:xlink="http://www.w3.org/1999/xlink" x="0px" y="0px"
	 viewBox="0 0 50.4 50" style="enable-background:new 0 0 50.4 50;" xml:space="preserve">
<style type="text/css">
	.st0{fill:#662247;}
</style>
<g>
	<path class="st0" d="M25,50C11.2,50,0,38.8,0,25S11.2,0,25,0c13.8,0,25,11.2,25,25c0,4.2-1.1,8.3-3.1,12l3.4,12.9l-12.6-3.4
		C33.9,48.8,29.5,50,25,50z M25,2.3C12.5,2.3,2.3,12.5,2.3,25S12.5,47.7,25,47.7c4.3,0,8.5-1.2,12.1-3.5l0.6-0.4l9.1,2.4L44.3,37
		l0.3-0.6c2-3.5,3.1-7.4,3.1-11.4C47.7,12.5,37.5,2.3,25,2.3z"/>
	<path class="st0" d="M23.8,7.9c-7.9,0-14.4,6.5-14.4,14.4c0,0.8,0.6,1.4,1.4,1.4c0.8,0,1.4-0.6,1.4-1.4c0-6.4,5.2-11.5,11.5-11.5
		c0.8,0,1.4-0.6,1.4-1.4C25.2,8.6,24.6,7.9,23.8,7.9z"/>
</g>
</svg>
