<?xml version="1.0" encoding="utf-8"?>
<!-- Generator: Adobe Illustrator 21.1.0, SVG Export Plug-In . SVG Version: 6.00 Build 0)  -->
<svg version="1.1" id="Слой_1" xmlns="http://www.w3.org/2000/svg" xmlns:xlink="http://www.w3.org/1999/xlink" x="0px" y="0px"
	 viewBox="0 0 61 61" style="enable-background:new 0 0 61 61;" xml:space="preserve">
<style type="text/css">
	.st0{fill:none;stroke:#FFFFFF;stroke-width:3;stroke-miterlimit:10;}
	.st1{fill:#FFFFFF;}
</style>
<polyline class="st0" points="13.2,1.5 2,1.5 2,59 35,59 "/>
<polyline class="st0" points="47.8,59 59,59 59,1.5 26,1.5 "/>
<path class="st1" d="M41.7,15.3H21.4c-3.5,0-6.4,2.9-6.4,6.4v6.7v2.5v11c0,3.5,2.9,6.4,6.4,6.4h20.3c3.5,0,6.4-2.9,6.4-6.4v-11v-2.5
	v-6.7C48,18.1,45.2,15.3,41.7,15.3z M43.5,19.1h0.7v0.7v4.9h-5.6v-5.6H43.5z M26.8,28.4c1.1-1.5,2.8-2.4,4.7-2.4s3.7,1,4.7,2.4
	c0.1,0.2,0.2,0.4,0.3,0.6c0.5,0.8,0.8,1.8,0.8,2.8c0,3.2-2.6,5.8-5.8,5.8s-5.8-2.6-5.8-5.8c0-1,0.3-2,0.8-2.8
	C26.6,28.8,26.7,28.6,26.8,28.4z M44.8,41.9c0,1.7-1.4,3.2-3.2,3.2H21.4c-1.7,0-3.2-1.4-3.2-3.2V30.1v-1.7h4.9
	c-0.1,0.3-0.2,0.6-0.3,0.9c-0.2,0.8-0.3,1.6-0.3,2.5c0,5,4.1,9,9,9c5,0,9-4.1,9-9c0-0.9-0.1-1.7-0.3-2.5c-0.1-0.3-0.2-0.6-0.3-0.9
	h4.9v1.7C44.8,30.1,44.8,41.9,44.8,41.9z"/>
</svg>
