<?xml version="1.0" encoding="utf-8"?>
<!-- Generator: Adobe Illustrator 21.1.0, SVG Export Plug-In . SVG Version: 6.00 Build 0)  -->
<svg version="1.1" id="Capa_1" xmlns="http://www.w3.org/2000/svg" xmlns:xlink="http://www.w3.org/1999/xlink" x="0px" y="0px"
	 viewBox="0 0 53.6 49.8" style="enable-background:new 0 0 53.6 49.8;" xml:space="preserve">
<style type="text/css">
	.st0{fill:#662247;}
</style>
<path class="st0" d="M53.5,15C52.7,6.4,46.6,0.1,39,0.1c-5.1,0-9.7,2.7-12.3,7.1C24,2.8,19.6,0.1,14.6,0.1C7,0.1,0.9,6.3,0.1,14.9
	c-0.1,0.4-0.3,2.4,0.5,5.6c1.1,4.7,3.7,9,7.4,12.4l18.7,16.9l19-16.9c3.7-3.4,6.3-7.7,7.4-12.4C53.8,17.3,53.5,15.3,53.5,15z
	 M7.2,17.7c-0.5,0-1-0.4-1-1c0-5.7,4.6-10.3,10.3-10.3c0.6,0,1,0.4,0.9,1.1c0,0.5-0.4,1-1,1c-4.5,0-8.2,3.7-8.2,8.2
	C8.2,17.2,7.7,17.7,7.2,17.7z"/>
</svg>
