<?xml version="1.0" encoding="utf-8"?>
<!-- Generator: Adobe Illustrator 21.1.0, SVG Export Plug-In . SVG Version: 6.00 Build 0)  -->
<svg version="1.1" id="Capa_1" xmlns="http://www.w3.org/2000/svg" xmlns:xlink="http://www.w3.org/1999/xlink" x="0px" y="0px"
	 viewBox="0 0 67 67" style="enable-background:new 0 0 67 67;" xml:space="preserve">
<style type="text/css">
	.st0{fill:#662247;}
</style>
<g>
	<path class="st0" d="M57.8,24.4C44.3,10.9,22.4,10.9,9,24.4l-9,9l9.2,9.2c6.7,6.7,15.6,10.1,24.4,10.1S51.3,49.3,58,42.6l9-9
		L57.8,24.4z M56.4,41c-12.6,12.6-33,12.6-45.6,0l-7.6-7.6l7.4-7.4c12.6-12.6,33-12.6,45.6,0l7.6,7.6L56.4,41z"/>
	<path class="st0" d="M32.3,24.4c-4.4,0-7.9,3.6-7.9,7.9c0,0.6,0.5,1.1,1.1,1.1s1.1-0.5,1.1-1.1c0-3.1,2.5-5.7,5.7-5.7
		c0.6,0,1.1-0.5,1.1-1.1S33,24.4,32.3,24.4z"/>
	<path class="st0" d="M33.5,18.8c-8.1,0-14.7,6.6-14.7,14.7s6.6,14.7,14.7,14.7s14.7-6.6,14.7-14.7S41.6,18.8,33.5,18.8z M33.5,45.9
		c-6.9,0-12.5-5.6-12.5-12.5S26.6,21,33.5,21s12.5,5.6,12.5,12.5S40.3,45.9,33.5,45.9z"/>
</g>
</svg>
